# xmcd
#
# Track frame offsets:
#	150
#	14148
#	30937
#	44512
#	62353
#	76277
#	93728
#	108371
#	125960
#	142504
#	157295
#	170909
#	186128
#	199470
#	215745
#	228590
#	243266
#	258455
#	276715
#
# Disc length: 3957 seconds
#
# Revision: 2
# Processed by: cddbd v1.5.2PL0 Copyright (c) Steve Scherf et al.
# Submitted via: audiograbber 1.83.01
#
DISCID=250f7313
DTITLE=Various Artist - Promo Only Country Radio August 2009
DYEAR=2009
DGENRE=Country
TTITLE0=Trailer Choir - Rockin' The Beer Gut
TTITLE1=Montgomery Gentry - Long Line Of Losers
TTITLE2=Craig Morgan - Bonfire
TTITLE3=Brooks and Dunn - Indian Summer
TTITLE4=Jake Owen - Eight Second Ride (Album Version)
TTITLE5=Dean Brody - Gravity
TTITLE6=Steve Holy - Baby Don't Go
TTITLE7=Jason Michael Carroll - Hurry Home
TTITLE8=Lost Trailers - All This Love
TTITLE9=Sara Evans - Feels Just Like A Love Song
TTITLE10=Hoyt Hughes - Ain't My Day To Save The World
TTITLE11=Darren Kozelsky - Seven Vern Gosdins Ago
TTITLE12=Christopher Michael Johnson - The Day We Changed The Rules
TTITLE13=John Rich - Good Lord and The Man, The (Album Version)
TTITLE14=Easton Corbin - A Little More Country Than That
TTITLE15=Kenny Chesney - Out Last Night (Album Version)
TTITLE16=Sarah Jarosz - Left Home (Album Version)
TTITLE17=Marshall Crenshaw - Live and Learn
TTITLE18=Levon Helm - When I Go Away (Album Version)
EXTD=
EXTT0=
EXTT1=
EXTT2=
EXTT3=
EXTT4=
EXTT5=
EXTT6=
EXTT7=
EXTT8=
EXTT9=
EXTT10=
EXTT11=
EXTT12=
EXTT13=
EXTT14=
EXTT15=
EXTT16=
EXTT17=
EXTT18=
PLAYORDER=
